<?xml version="1.0" encoding="UTF-8" standalone="no"?>
<!DOCTYPE svg PUBLIC "-//W3C//DTD SVG 1.1//EN" "http://www.w3.org/Graphics/SVG/1.1/DTD/svg11.dtd">
<svg width="100%" height="100%" viewBox="0 0 2550 2550" version="1.1" xmlns="http://www.w3.org/2000/svg" xmlns:xlink="http://www.w3.org/1999/xlink" xml:space="preserve" xmlns:serif="http://www.serif.com/" style="fill-rule:evenodd;clip-rule:evenodd;stroke-linejoin:round;stroke-miterlimit:2;">
    <g transform="matrix(6.6161,0,0,6.6161,-2457.55,-6602.87)">
        <path d="M427,1107C439.21,1080.48 460.372,1067.57 481,1057.94C446.581,1052.52 421.434,1029.32 408.503,998C391.702,1036.46 402.3,1073.59 427,1107Z" style="fill:white;"/>
        <g transform="matrix(-1,0,0,1,1128.32,0)">
            <path d="M427,1107C439.21,1080.48 460.372,1067.57 481,1057.94C446.581,1052.52 421.434,1029.32 408.503,998C391.702,1036.46 402.3,1073.59 427,1107Z" style="fill:white;"/>
        </g>
        <g transform="matrix(1.47552,0,0,1.47552,-409.129,-175.01)">
            <path d="M661.961,1056.2C639.671,1056.2 620.454,1051.63 604.312,1042.5C588.169,1033.37 575.77,1020.41 567.115,1003.61C558.46,986.817 554.133,966.904 554.133,943.876C554.133,921.409 558.433,901.699 567.033,884.748C575.633,867.796 587.796,854.573 603.524,845.078C619.252,835.583 637.75,830.835 659.019,830.835C673.279,830.835 686.603,833.107 698.991,837.652C711.379,842.196 722.251,849.048 731.606,858.21C740.962,867.371 748.269,878.883 753.526,892.745C758.783,906.607 761.411,922.891 761.411,941.596L761.411,958.039L578.172,958.039L578.172,921.18L732.868,921.18L705.494,931.061C705.494,919.692 703.758,909.812 700.286,901.421C696.814,893.03 691.671,886.52 684.855,881.893C678.039,877.265 669.568,874.952 659.44,874.952C649.312,874.952 640.721,877.295 633.666,881.983C626.612,886.67 621.243,893.03 617.561,901.061C613.878,909.092 612.037,918.225 612.037,928.458L612.037,954.404C612.037,967.036 614.151,977.648 618.379,986.239C622.606,994.829 628.553,1001.28 636.219,1005.6C643.885,1009.92 652.776,1012.08 662.892,1012.08C669.73,1012.08 675.943,1011.11 681.533,1009.16C687.123,1007.21 691.93,1004.33 695.953,1000.51C699.976,996.694 703.038,991.989 705.14,986.396L758.106,996.192C754.581,1008.25 748.465,1018.79 739.759,1027.79C731.054,1036.79 720.146,1043.77 707.037,1048.74C693.927,1053.71 678.902,1056.2 661.961,1056.2Z" style="fill:white;fill-rule:nonzero;"/>
        </g>
    </g>
</svg>
